<svg xmlns="http://www.w3.org/2000/svg" viewBox="0 0 1024 1024" width="1024" height="1024"><defs><filter id="__blur6" x="-20%" y="-20%" width="140%" height="140%"><feGaussianBlur stdDeviation="6"></feGaussianBlur></filter><filter id="__blur8" x="-20%" y="-20%" width="140%" height="140%"><feGaussianBlur stdDeviation="8"></feGaussianBlur></filter><linearGradient id="lgm-base" x1="0" y1="0" x2="0" y2="1"><stop offset="0" stop-color="#f4efe4"></stop><stop offset="1" stop-color="rgb(200, 196, 187)"></stop></linearGradient><radialGradient id="lgm-sheen" cx="0.5" cy="-0.1" r="0.85"><stop offset="0" stop-color="#ffffff" stop-opacity="0.35"></stop><stop offset="0.5" stop-color="#ffffff" stop-opacity="0.06"></stop><stop offset="0.8" stop-color="#ffffff" stop-opacity="0"></stop></radialGradient><radialGradient id="lgm-shade" cx="0.5" cy="1.05" r="0.75"><stop offset="0" stop-color="#000" stop-opacity="0.22"></stop><stop offset="0.7" stop-color="#000" stop-opacity="0"></stop></radialGradient><linearGradient id="lgm-rim" x1="0" y1="0" x2="0" y2="1"><stop offset="0" stop-color="#ffffff" stop-opacity="0.7"></stop><stop offset="0.15" stop-color="#ffffff" stop-opacity="0.05"></stop><stop offset="0.85" stop-color="#000" stop-opacity="0"></stop><stop offset="1" stop-color="#000" stop-opacity="0.22"></stop></linearGradient><clipPath id="lgm-clip"><rect width="1024" height="1024"></rect></clipPath><linearGradient id="lgm-bar-bargrad" x1="0" y1="0" x2="0" y2="1"><stop offset="0" stop-color="#ffffff" stop-opacity="0.55"></stop><stop offset="0.45" stop-color="#ffffff" stop-opacity="0.0"></stop><stop offset="1" stop-color="#000" stop-opacity="0.25"></stop></linearGradient><linearGradient id="lgm-bar-barrim" x1="0" y1="0" x2="0" y2="1"><stop offset="0" stop-color="rgba(255,255,255,0.85)"></stop><stop offset="0.5" stop-color="rgba(255,255,255,0.05)"></stop><stop offset="1" stop-color="rgba(0,0,0,0.25)"></stop></linearGradient><linearGradient id="lgm-ring-ringgrad" x1="0" y1="236" x2="0" y2="788" gradientUnits="userSpaceOnUse"><stop offset="0" stop-color="rgba(20,20,20,0.85)" stop-opacity="1"></stop><stop offset="0.45" stop-color="rgba(20,20,20,0.85)" stop-opacity="0.55"></stop><stop offset="1" stop-color="rgba(20,20,20,0.85)" stop-opacity="0.85"></stop></linearGradient><linearGradient id="lgm-ring-ringspec" x1="0" y1="236" x2="0" y2="788" gradientUnits="userSpaceOnUse"><stop offset="0" stop-color="#ffffff" stop-opacity="0.9"></stop><stop offset="0.4" stop-color="#ffffff" stop-opacity="0"></stop><stop offset="0.6" stop-color="#ffffff" stop-opacity="0"></stop><stop offset="1" stop-color="#ffffff" stop-opacity="0.5"></stop></linearGradient></defs><g clip-path="url(#lgm-clip)"><rect width="1024" height="1024" fill="url(#lgm-base)"></rect><g fill="#0a0a0a" opacity="0.12"><rect x="120" y="260" width="380" height="12" rx="6"></rect><rect x="120" y="306" width="500" height="12" rx="6"></rect><rect x="120" y="740" width="420" height="12" rx="6"></rect><rect x="120" y="786" width="500" height="12" rx="6"></rect></g><rect x="316" y="488" width="392" height="60" rx="16" ry="16" fill="rgba(0,0,0,0.35)" filter="url(#__blur6)"></rect><rect x="316" y="482" width="392" height="60" rx="16" ry="16" fill="#e64a19"></rect><rect x="316" y="482" width="392" height="60" rx="16" ry="16" fill="url(#lgm-bar-bargrad)"></rect><rect x="317" y="483" width="390" height="58" rx="15" ry="15" fill="none" stroke="url(#lgm-bar-barrim)" stroke-width="2"></rect><circle cx="512" cy="520" r="276" fill="none" stroke="rgba(0,0,0,0.35)" stroke-width="34" filter="url(#__blur8)"></circle><circle cx="512" cy="512" r="276" fill="none" stroke="url(#lgm-ring-ringgrad)" stroke-width="32"></circle><circle cx="512" cy="512" r="276" fill="none" stroke="url(#lgm-ring-ringspec)" stroke-width="11.2"></circle><circle cx="512" cy="512" r="292" fill="none" stroke="rgba(255,255,255,0.35)" stroke-width="1.5"></circle><circle cx="512" cy="512" r="259" fill="none" stroke="rgba(0,0,0,0.18)" stroke-width="1"></circle><rect width="1024" height="1024" fill="url(#lgm-shade)"></rect><rect width="1024" height="1024" fill="url(#lgm-sheen)"></rect><rect x="3" y="3" width="1018" height="1018" rx="226" ry="226" fill="none" stroke="url(#lgm-rim)" stroke-width="3"></rect></g></svg>